<svg xmlns="http://www.w3.org/2000/svg" xmlns:xlink="http://www.w3.org/1999/xlink" width="500" zoomAndPan="magnify" viewBox="0 0 375 374.999991" height="500" preserveAspectRatio="xMidYMid meet" version="1.0"><defs><clipPath id="756c9ecf63"><path d="M 26.71875 17.136719 L 348.46875 17.136719 L 348.46875 357.636719 L 26.71875 357.636719 Z M 26.71875 17.136719 " clip-rule="nonzero"/></clipPath></defs><g clip-path="url(#756c9ecf63)"><path fill="#5271ff" d="M 180.300781 281.289062 L 180.234375 281.289062 C 148.542969 281.289062 120.410156 265.070312 103.542969 240.886719 L 103.542969 94.027344 L 26.78125 94.027344 L 26.78125 17.265625 L 103.542969 17.265625 L 103.542969 94.027344 L 180.304688 94.027344 L 180.304688 17.136719 C 203.238281 17.136719 225.488281 21.679688 246.5 30.566406 C 266.777344 39.144531 284.902344 51.449219 300.523438 67.070312 C 316.144531 82.691406 328.414062 100.964844 336.988281 121.242188 C 342.308594 133.816406 346.054688 146.71875 348.207031 160.363281 L 269.636719 160.363281 C 257.925781 122.078125 222.191406 93.816406 180.304688 93.816406 L 180.304688 281.289062 Z M 180.230469 281.101562 L 180.304688 280.914062 L 180.304688 357.859375 L 180.195312 357.859375 C 203.15625 357.859375 225.433594 353.21875 246.445312 344.332031 C 266.722656 335.757812 284.910156 323.421875 300.53125 307.800781 C 316.152344 292.179688 328.414062 274.136719 336.992188 253.859375 C 339.335938 248.316406 341.367188 243 343.101562 237.125 L 259.570312 237.125 C 243.035156 263.28125 213.695312 281.101562 180.230469 281.101562 Z M 180.230469 281.101562 " fill-opacity="1" fill-rule="nonzero"/></g></svg>